<svg xmlns="http://www.w3.org/2000/svg" width="1600" height="900" viewBox="0 0 1600 900" preserveAspectRatio="xMidYMid slice">
  <defs>
    <linearGradient id="grad" x1="0" x2="1" y1="0" y2="1">
      <stop offset="0%" stop-color="#0D47A1" />
      <stop offset="50%" stop-color="#1976D2" />
      <stop offset="100%" stop-color="#42A5F5" />
    </linearGradient>
    <linearGradient id="soft" x1="0" x2="0" y1="0" y2="1">
      <stop offset="0%" stop-color="#ffffff" stop-opacity="0.12" />
      <stop offset="100%" stop-color="#ffffff" stop-opacity="0.02" />
    </linearGradient>
  </defs>
  <rect width="1600" height="900" fill="url(#grad)" />
  <g opacity="0.25" fill="#ffffff">
    <circle cx="200" cy="150" r="3" />
    <circle cx="450" cy="120" r="2" />
    <circle cx="700" cy="200" r="3" />
    <circle cx="1200" cy="160" r="2" />
    <circle cx="1400" cy="80" r="3" />
    <circle cx="300" cy="300" r="2" />
    <circle cx="900" cy="260" r="3" />
    <circle cx="1500" cy="300" r="2" />
  </g>
  <path d="M0,650 C250,600 450,720 700,700 C950,680 1150,620 1600,660 L1600,900 L0,900 Z" fill="url(#soft)" />
  <path d="M0,740 C250,720 450,790 700,780 C950,770 1150,730 1600,760 L1600,900 L0,900 Z" fill="#FFFFFF" opacity="0.06" />
</svg>